<svg version="1.1" id="Layer_1" xmlns="http://www.w3.org/2000/svg" xmlns:xlink="http://www.w3.org/1999/xlink" x="0px" y="0px"
	 width="100%" viewBox="0 0 1024 784" enable-background="new 0 0 1024 784" xml:space="preserve">
<path fill="#000000" opacity="1.000000" stroke="none" 
	d="
M493.998535,604.348267 
	C467.979614,604.326904 442.593079,602.659485 417.383545,598.516113 
	C413.026276,597.800049 408.978149,596.954041 407.918671,591.955872 
	C406.639771,585.922485 406.481781,579.967102 411.386688,575.180115 
	C412.449615,574.142822 413.731110,573.308228 414.984802,572.492371 
	C417.098022,571.117126 417.588715,569.650940 416.601074,567.070251 
	C412.274658,555.765503 414.315094,548.347351 423.706055,540.614075 
	C426.784882,538.078674 430.239288,536.002136 433.348053,533.499756 
	C439.302216,528.706970 442.321259,522.820129 439.437592,515.071106 
	C437.889282,510.910431 438.734283,507.355408 442.512573,505.040680 
	C463.559418,492.146301 472.549744,471.988586 476.684479,448.840149 
	C476.995605,447.098236 476.905457,445.134857 478.736786,443.955231 
	C480.798096,444.927917 480.143555,446.834320 480.152008,448.335541 
	C480.229126,462.001312 480.170837,475.667816 480.252197,489.333527 
	C480.269226,492.191620 479.470337,494.479553 477.328644,496.433167 
	C474.746033,498.788971 472.255829,501.259552 469.875549,503.819794 
	C467.640747,506.223572 465.523285,507.954468 461.726501,507.331238 
	C458.061096,506.729584 455.640930,509.157318 455.448700,512.855835 
	C455.269592,516.302429 457.208801,518.630066 460.783508,518.842224 
	C464.616486,519.069763 466.832977,516.990234 466.819611,513.151062 
	C466.793243,505.567932 473.670380,502.969635 477.652069,498.471313 
	C480.393646,495.373993 482.087433,492.788757 482.060944,488.577545 
	C481.928894,467.579651 481.951935,446.578857 482.183746,425.582031 
	C482.236328,420.821289 480.758331,418.925385 475.889618,419.298645 
	C471.416962,419.641541 466.895721,419.360840 462.395966,419.336609 
	C457.566528,419.310608 453.853394,417.469635 452.636963,412.494659 
	C451.478088,407.755066 453.745209,404.459930 457.828064,402.246857 
	C464.272278,398.753784 470.729980,395.285583 477.183289,391.809326 
	C479.061157,390.797729 481.148254,390.078003 482.408966,388.227905 
	C482.109406,385.515717 479.817749,384.718445 478.171600,383.492828 
	C452.007812,364.012909 453.287109,329.109131 470.030823,310.955658 
	C482.904266,296.998230 498.988647,290.720703 517.898010,296.035797 
	C536.916504,301.381592 549.417053,313.654297 553.243713,333.488831 
	C557.336426,354.702515 550.413940,371.818848 533.128784,384.767731 
	C532.101501,385.537292 530.758728,386.096161 530.569824,388.195526 
	C534.478149,391.708801 539.729797,393.553772 544.355774,396.369049 
	C548.193176,398.704437 552.260803,400.659149 556.130676,402.944580 
	C559.921814,405.183441 561.120789,408.708252 560.049561,412.840179 
	C558.945679,417.097687 555.771240,419.147034 551.549133,419.276093 
	C545.721619,419.454193 539.881470,419.455933 534.053528,419.291595 
	C530.751892,419.198456 529.202209,420.140961 529.218018,423.769623 
	C529.315369,446.101257 529.268433,468.433655 529.216797,490.765686 
	C529.211426,493.099030 529.931641,494.845490 531.707642,496.440216 
	C534.803528,499.220184 537.646240,502.280151 540.646484,505.169403 
	C542.945374,507.383240 544.881470,509.416351 544.479614,513.233032 
	C544.123962,516.609924 546.584900,518.834290 550.128479,518.872192 
	C553.703613,518.910522 555.682617,516.800537 555.850464,513.275208 
	C556.020691,509.698029 553.985046,506.922028 550.619934,507.372314 
	C545.750244,508.023926 543.615601,504.780762 540.420593,502.516205 
	C532.226807,496.708527 530.573181,488.744904 530.989868,479.421600 
	C531.472900,468.612152 530.731506,457.762543 531.604187,446.947723 
	C531.733276,445.348663 531.345093,443.648438 532.583862,441.878723 
	C535.080994,443.620972 534.825500,446.271759 535.290283,448.530914 
	C538.270630,463.017792 542.918762,476.824951 551.634949,488.982361 
	C555.970581,495.029755 561.467957,499.856171 567.834045,503.642975 
	C572.461243,506.395447 574.093811,509.857422 572.614075,515.333984 
	C570.301025,523.894592 572.534851,529.083374 579.800659,534.254333 
	C582.651245,536.283081 585.646057,538.117126 588.427124,540.234314 
	C597.382141,547.051697 600.227966,556.443909 595.986938,566.730530 
	C594.478699,570.388672 595.296875,571.984924 598.504944,573.829712 
	C604.852112,577.479553 607.340698,586.394470 604.387207,593.074768 
	C602.870483,596.505371 600.227661,597.805847 596.611267,598.375854 
	C562.763367,603.710999 528.682068,604.861694 493.998535,604.348267 
M506.567810,527.014343 
	C506.723694,524.320435 505.019562,521.455322 507.629395,518.409851 
	C513.177490,522.435913 517.631958,527.433105 521.847107,532.653320 
	C522.616272,533.605835 521.857971,534.890686 521.686218,536.031860 
	C521.095642,539.955933 523.916321,544.138245 527.390747,544.613647 
	C530.650696,545.059692 534.292969,541.945190 534.632324,538.421387 
	C534.983765,534.772034 532.064575,531.274719 527.952026,531.324036 
	C524.373657,531.366943 521.992676,529.826355 519.730713,527.450989 
	C516.861328,524.437622 514.013306,521.383423 510.920929,518.608887 
	C507.834961,515.840088 506.677032,512.680542 506.702515,508.497528 
	C506.869690,481.027313 506.819458,453.555695 506.800140,426.084564 
	C506.798859,424.247040 507.298737,422.242065 505.917175,420.301392 
	C504.468262,422.270782 504.998596,424.138611 504.998413,425.883179 
	C504.995850,449.358307 504.405273,472.858185 505.324310,496.298492 
	C505.812927,508.761292 503.202698,518.646790 492.851044,526.151733 
	C489.676544,528.453247 487.513550,531.668518 482.754852,531.540894 
	C479.038452,531.441284 476.551849,535.869751 477.367432,539.653259 
	C478.174957,543.399719 480.895844,544.793640 484.395752,544.584290 
	C487.704865,544.386353 491.218781,540.276184 490.018188,537.058655 
	C488.287964,532.421387 490.963806,530.338562 493.547119,527.747681 
	C495.541626,525.747314 497.332214,523.545288 499.275299,521.491394 
	C500.589355,520.102356 501.661224,518.176941 505.012329,518.952881 
	C505.012329,525.859741 504.911438,532.928345 505.051910,539.992065 
	C505.130310,543.934082 504.871033,547.392883 501.445312,550.273804 
	C498.556000,552.703613 498.873230,556.067322 501.624786,558.576599 
	C503.973511,560.718445 507.001373,560.694397 509.399719,558.662354 
	C512.220825,556.272217 512.747620,552.798950 510.027527,550.324219 
	C506.842896,547.426758 506.679779,544.123596 506.734283,540.406982 
	C506.795258,536.246948 506.657837,532.083984 506.567810,527.014343 
M494.545074,488.880341 
	C492.982635,466.142181 495.854156,443.346924 493.801270,420.597473 
	C493.258728,422.041107 493.088074,423.496460 493.087708,424.951843 
	C493.081390,449.768372 493.024384,474.585327 493.174713,499.401001 
	C493.200806,503.709351 492.034302,506.964966 488.856567,509.992065 
	C480.779602,517.685913 473.042908,525.735657 465.072418,533.543213 
	C462.458313,536.103882 460.519684,538.724243 460.976868,542.665466 
	C461.270386,545.195557 459.848328,546.892944 457.808990,548.453979 
	C454.394867,551.067322 453.958221,556.246521 456.770569,558.995361 
	C459.632629,561.792908 462.839569,561.461060 465.781097,559.129272 
	C468.928986,556.633972 468.721558,552.558289 465.489166,549.089661 
	C461.548706,544.861267 461.474976,540.064575 465.473755,535.977051 
	C471.296448,530.025146 476.798676,523.658875 483.201172,518.398804 
	C492.464935,510.787994 496.815125,501.753235 494.545074,488.880341 
M517.163025,470.500000 
	C517.143677,481.325592 517.150391,492.151337 517.086182,502.976654 
	C517.070679,505.585510 517.674011,507.630127 519.724365,509.594086 
	C528.377747,517.882812 536.851929,526.360474 545.313171,534.847229 
	C550.604065,540.154175 550.670166,544.746704 545.592773,550.315125 
	C543.101196,553.047668 543.139954,555.908325 545.505066,558.318115 
	C547.872498,560.730286 551.006592,560.729675 553.668640,558.598267 
	C556.251404,556.530334 556.930359,553.172913 554.640564,551.119568 
	C551.072021,547.919495 550.491638,544.256165 550.658325,540.001831 
	C550.747192,537.734375 549.014221,536.463867 547.611633,535.066528 
	C539.589050,527.073730 531.641174,519.002747 523.476868,511.157074 
	C520.131531,507.942322 518.669739,504.515503 518.713135,499.749573 
	C518.938904,474.935883 518.826355,450.118958 518.788269,425.303253 
	C518.785767,423.699463 519.339478,421.862457 517.161926,419.571899 
	C517.161926,436.925934 517.161926,453.212982 517.163025,470.500000 
M491.706512,312.046295 
	C482.997772,311.714813 475.706055,318.831390 476.266266,327.115631 
	C476.586853,331.856415 479.611786,334.367279 484.265228,333.755066 
	C490.870880,332.886047 497.064087,325.720032 496.931580,319.162964 
	C496.865326,315.884766 495.835175,313.298798 491.706512,312.046295 
z"/>
<path fill="#000000" opacity="1.000000" stroke="none" 
	d="
M515.908691,265.179993 
	C492.787018,264.416992 470.495789,266.286591 448.939758,273.827179 
	C446.563934,274.658234 444.347748,274.960449 443.254578,271.853699 
	C436.097626,251.514374 426.238556,232.424759 416.203308,213.416290 
	C416.072815,213.169052 416.219330,212.775513 416.239288,212.398483 
	C417.938446,211.031265 419.377686,212.453491 420.818420,212.954773 
	C426.950348,215.088226 432.982941,217.525543 439.171356,219.471710 
	C443.115692,220.712112 445.094421,222.592468 444.379303,227.020096 
	C443.705566,231.191330 444.317566,235.355591 446.293762,239.172958 
	C447.320435,241.156113 448.781555,242.779617 451.283844,242.780899 
	C453.916077,242.782257 455.038086,240.907623 455.866425,238.827591 
	C458.750488,231.585724 458.249084,224.142944 457.073334,216.673782 
	C456.747772,214.605499 455.139282,213.812546 453.502258,212.852570 
	C449.146606,210.298416 447.861389,206.243362 449.743042,201.781418 
	C451.346466,197.979263 455.290314,196.090240 459.166809,197.267593 
	C463.271820,198.514359 466.175323,202.948303 464.992920,207.554245 
	C464.072449,211.139801 465.216461,213.620621 467.140869,216.273102 
	C471.295349,221.999329 475.937744,227.197464 482.379272,230.404022 
	C485.749481,232.081696 489.667297,233.395615 492.621094,230.370590 
	C495.758148,227.157913 494.228638,223.120590 492.368469,219.672745 
	C490.454529,216.125198 487.683167,213.202545 484.476776,210.737534 
	C481.927307,208.777466 481.806763,206.962585 484.239716,204.638565 
	C492.770203,196.489914 499.628998,187.143524 503.982880,176.085693 
	C504.231964,175.453094 504.527954,174.838974 504.645996,174.570908 
	C507.323792,175.525970 507.722626,177.287598 508.429504,178.727768 
	C513.165588,188.376556 518.672119,197.449692 527.180115,204.327164 
	C530.275696,206.829468 530.226257,208.774872 526.820618,211.269638 
	C522.485046,214.445663 518.982483,218.504929 517.659241,223.999863 
	C516.227478,229.945480 518.943115,233.371002 524.663757,231.634995 
	C534.869751,228.537811 541.740356,221.065750 547.154114,212.171432 
	C547.956360,210.853500 547.011414,209.600357 546.751099,208.326447 
	C545.817810,203.759811 547.944885,199.250671 551.617126,197.969421 
	C555.871887,196.484909 560.929810,198.513443 562.680420,202.406540 
	C564.327454,206.069565 562.738525,210.830841 558.482666,212.953156 
	C555.536987,214.422119 554.426697,216.476303 553.882141,219.464172 
	C552.718811,225.847855 553.424805,232.070587 555.067749,238.238663 
	C555.690063,240.575012 556.755432,242.705627 559.647705,242.782761 
	C562.311035,242.853806 564.048279,241.287476 565.110840,239.070908 
	C566.934021,235.267517 568.037048,231.288574 567.235229,226.993896 
	C566.824219,224.792740 566.496948,222.282715 568.971252,221.296082 
	C577.414978,217.929031 585.966980,214.833405 594.367493,211.675598 
	C596.006897,214.018784 594.533264,215.332031 593.771667,216.675690 
	C584.141174,233.665726 575.854553,251.293137 569.009338,269.573334 
	C567.391541,273.893890 565.552246,275.105347 560.915405,273.435822 
	C546.564514,268.268677 531.616089,265.892181 515.908691,265.179993 
z"/>
<path fill="#000000" opacity="1.000000" stroke="none" 
	d="
M505.997589,269.777283 
	C524.632080,269.604248 542.306030,272.553680 559.678101,277.593353 
	C563.450500,278.687714 566.371826,280.536530 567.051392,284.778900 
	C568.121704,291.461761 563.490295,295.159210 556.636108,293.168457 
	C522.269287,283.186737 487.925079,283.752838 453.740295,293.899384 
	C449.254272,295.230957 446.743622,294.426178 444.879303,290.459045 
	C443.021210,286.505127 444.175873,281.269318 447.793976,279.458954 
	C451.040649,277.834412 454.564941,276.659180 458.078552,275.691803 
	C473.588501,271.421570 489.402466,269.426666 505.997589,269.777283 
z"/>
<path fill="#000000" opacity="1.000000" stroke="none" 
	d="
M872.969727,632.431702 
	C878.984497,631.233643 886.495483,639.103821 884.986450,644.604919 
	C884.555725,646.175171 883.683838,647.319763 882.001221,647.577454 
	C880.281860,647.840820 878.982544,646.949890 878.354675,645.511658 
	C876.499023,641.260742 873.905151,637.322754 872.969727,632.431702 
z"/>
<path fill="#000000" opacity="1.000000" stroke="none" 
	d="
M486.029205,533.648926 
	C489.061798,536.531250 489.672333,539.339417 486.308167,541.832581 
	C484.434143,543.221313 482.162811,543.152954 480.286011,541.557007 
	C478.665497,540.179016 477.634094,538.348267 478.680389,536.249268 
	C480.128204,533.344910 482.484192,532.166748 486.029205,533.648926 
z"/>
<path fill="#000000" opacity="1.000000" stroke="none" 
	d="
M523.225281,539.369263 
	C523.188660,534.493591 525.158691,532.296448 528.669495,532.862366 
	C531.060608,533.247803 532.593262,534.675903 532.917297,537.102600 
	C533.212646,539.314453 532.264038,541.152527 530.232849,541.968994 
	C527.469238,543.079895 525.001587,542.508789 523.225281,539.369263 
z"/>
</svg>